<?xml version="1.0" encoding="utf-8"?>
<!-- Svg Vector Icons : http://www.onlinewebfonts.com/icon -->
<!DOCTYPE svg PUBLIC "-//W3C//DTD SVG 1.1//EN" "http://www.w3.org/Graphics/SVG/1.1/DTD/svg11.dtd">
<svg version="1.1" xmlns="http://www.w3.org/2000/svg" xmlns:xlink="http://www.w3.org/1999/xlink" x="0px" y="0px" viewBox="0 0 1000 1000" enable-background="new 0 0 1000 1000" xml:space="preserve">
<metadata> Svg Vector Icons : http://www.onlinewebfonts.com/icon </metadata>
<g><g transform="translate(0.000000,511.000000) scale(0.100000,-0.100000)"><path d="M4536.4,5010.2C2499,4801.6,834.8,3417.8,271.5,1463.9C139.4,1000.3,100,689.7,100,112.6c0-442.7,6.9-567.9,53.3-820.5c90.4-509.9,222.5-913.2,447.3-1369.9c1029.1-2074.5,3356.2-3140.7,5618.5-2572.8C7932-4221.8,9313.4-2849.6,9751.5-1146c127.5,486.7,148.4,667.5,148.4,1247c2.3,600.3-25.5,829.8-159.9,1323.5c-465.9,1694.4-1821.8,3024.8-3520.8,3451.3c-421.8,106.6-802,150.7-1237.7,146C4779.7,5021.8,4580.4,5014.8,4536.4,5010.2z M5646.6,4688c1337.4-197,2484.7-924.8,3217.2-2039.7c688.4-1050,920.2-2368.8,630.5-3608.9C9151.2-2425.5,8047.9-3681.8,6634-4210.2c-871.5-326.8-1872.8-382.5-2779.1-153c-788.1,201.6-1462.6,577.1-2051.3,1147.3C1010.9-2448.7,542.7-1505.3,408.3-413.6c-44,368.6-16.2,1073.2,60.3,1430.1C876.5,2961.2,2376.1,4384.4,4339.3,4688C4633.7,4734.4,5340.6,4734.4,5646.6,4688z"/><path d="M4728.7,3371.5c-452-111.3-848.3-544.7-880.8-973.5l-13.9-153h-366.2c-373.2,0-468.2-16.2-496-90.4c-18.5-44-356.9-3787.4-359.3-3954.3c0-157.6,32.5-264.2,122.8-396.3c99.7-150.7,268.9-273.5,454.3-333.8c150.7-46.4,178.5-48.7,1858.9-41.7l1703.6,6.9l176.1,88.1c210.9,104.3,343.1,238.8,414.9,431.1c44.1,113.6,46.4,157.6,34.8,373.2c-25.5,403.3-333.8,3787.4-350,3826.8c-27.8,74.2-122.9,90.4-496,90.4h-366.2l-11.6,150.7c-25.5,315.2-294.4,704.6-595.7,866.9C5312.8,3392.3,4995.3,3434,4728.7,3371.5z M5377.7,3014.5c271.2-134.4,468.2-412.6,484.4-681.5l7-99.7l-864.6-6.9c-732.4-4.6-864.6,0-876.2,27.8c-18.5,51,53.3,306,118.2,419.5c69.5,115.9,227.1,266.6,338.4,326.8c153,78.8,261.9,102,454.3,95C5194.6,3088.7,5252.6,3074.8,5377.7,3014.5z M3817.8,1674.8c0-329.1,30.1-403.3,164.6-403.3c113.6,0,134.4,55.6,141.4,370.9l7,289.7h869.2h869.2l6.9-289.7c7-315.2,27.8-370.9,141.4-370.9c134.4,0,164.6,74.2,164.6,403.3v268.9h287.4h289.7l13.9-120.5c6.9-67.2,64.9-716.2,127.5-1444c64.9-725.5,132.1-1490.4,150.7-1699c48.7-537.8,46.3-577.2-32.5-704.6c-41.7-64.9-111.3-132.1-180.8-173.8l-111.2-64.9l-1680.4-7c-1119.5-4.6-1708.3,0-1763.9,16.2c-210.9,62.6-368.5,255-368.5,452c0,95,280.5,3323.8,312.9,3625.1l13.9,120.5h289.7h287.4V1674.8z"/></g></g>
</svg>